HIERARCHY
ROOT Hips
{
	OFFSET	0.00	0.00	0.00
	CHANNELS 6 Xposition Yposition Zposition Zrotation Xrotation Yrotation
	JOINT LeftUpLeg
	{
		OFFSET	 0.126116	-0.014019	-0.065224
		CHANNELS 3 Zrotation Xrotation Yrotation
		JOINT LeftLeg
		{
			OFFSET	 0.000000	 0.000000	 0.569914
			CHANNELS 3 Zrotation Xrotation Yrotation
			JOINT LeftFoot
			{
				OFFSET	 0.000000	 0.000000	 0.544423
				CHANNELS 3 Zrotation Xrotation Yrotation
				JOINT LeftToeBase
				{
					OFFSET	 0.000000	 0.000000	 0.207117
					CHANNELS 3 Zrotation Xrotation Yrotation
					End Site
					{
						OFFSET	 0.000000	 0.000000	 0.207117
					}
				}
			}
		}
	}
	JOINT RightUpLeg
	{
		OFFSET	-0.124023	-0.008373	-0.065224
		CHANNELS 3 Zrotation Xrotation Yrotation
		JOINT RightLeg
		{
			OFFSET	 0.000000	 0.000000	 0.570047
			CHANNELS 3 Zrotation Xrotation Yrotation
			JOINT RightFoot
			{
				OFFSET	 0.000000	 0.000000	 0.544354
				CHANNELS 3 Zrotation Xrotation Yrotation
				JOINT RightToeBase
				{
					OFFSET	 0.000000	 0.000000	 0.207540
					CHANNELS 3 Zrotation Xrotation Yrotation
					End Site
					{
						OFFSET	 0.000000	 0.000000	 0.207540
					}
				}
			}
		}
	}
	JOINT Spine
	{
		OFFSET	 0.000184	-0.007763	 0.117403
		CHANNELS 3 Zrotation Xrotation Yrotation
		JOINT Spine1
		{
			OFFSET	 0.000000	 0.000000	 0.137269
			CHANNELS 3 Zrotation Xrotation Yrotation
			JOINT Spine2
			{
				OFFSET	 0.000000	 0.000000	 0.156879
				CHANNELS 3 Zrotation Xrotation Yrotation
				JOINT LeftShoulder
				{
					OFFSET	 0.080501	-0.002496	 0.160144
					CHANNELS 3 Zrotation Xrotation Yrotation
					JOINT LeftArm
					{
						OFFSET	 0.000000	 0.000000	 0.164363
						CHANNELS 3 Zrotation Xrotation Yrotation
						JOINT LeftForeArm
						{
							OFFSET	 0.000000	 0.000000	 0.364576
							CHANNELS 3 Zrotation Xrotation Yrotation
							JOINT LeftHand
							{
								OFFSET	 0.000000	 0.000000	 0.360812
								CHANNELS 3 Zrotation Xrotation Yrotation
								JOINT LeftHandIndex1
								{
									OFFSET	 0.000000	 0.000000	 0.086006
									CHANNELS 3 Zrotation Xrotation Yrotation
									JOINT LeftHandIndex2
									{
										OFFSET	 0.000000	 0.000000	 0.047236
										CHANNELS 3 Zrotation Xrotation Yrotation
										JOINT LeftHandIndex3
										{
											OFFSET	-0.004284	-0.000551	 0.038166
											CHANNELS 3 Zrotation Xrotation Yrotation
											End Site
											{
												OFFSET	-0.004284	-0.000551	 0.038166
											}
										}
									}
								}
							}
						}
					}
				}
				JOINT Neck
				{
					OFFSET	 0.000000	 0.000000	 0.176489
					CHANNELS 3 Zrotation Xrotation Yrotation
					JOINT Head
					{
						OFFSET	 0.000000	-0.001747	 0.077940
						CHANNELS 3 Zrotation Xrotation Yrotation
						End Site
						{
							OFFSET	 0.000000	-0.001747	 0.077940
						}
					}
				}
				JOINT RightShoulder
				{
					OFFSET	-0.080363	 0.000306	 0.159706
					CHANNELS 3 Zrotation Xrotation Yrotation
					JOINT RightArm
					{
						OFFSET	 0.000000	 0.000000	 0.164196
						CHANNELS 3 Zrotation Xrotation Yrotation
						JOINT RightForeArm
						{
							OFFSET	 0.000000	 0.000000	 0.365611
							CHANNELS 3 Zrotation Xrotation Yrotation
							JOINT RightHand
							{
								OFFSET	 0.000000	 0.000000	 0.360648
								CHANNELS 3 Zrotation Xrotation Yrotation
								JOINT RightHandIndex1
								{
									OFFSET	 0.000000	 0.000000	 0.069977
									CHANNELS 3 Zrotation Xrotation Yrotation
									JOINT RightHandIndex2
									{
										OFFSET	 0.000000	 0.000000	 0.052305
										CHANNELS 3 Zrotation Xrotation Yrotation
										JOINT RightHandIndex3
										{
											OFFSET	 0.009002	-0.000782	 0.042196
											CHANNELS 3 Zrotation Xrotation Yrotation
											End Site
											{
												OFFSET	 0.009002	-0.000782	 0.042196
											}
										}
									}
								}
							}
						}
					}
				}
			}
		}
	}
}
MOTION
Frames:    5
Frame Time: 0.03333334
-0.000587	 0.012282	 1.266121	 0.003183	 0.003849	-0.140043	 18.820020	-4.398349	 176.078900	 1.432584	-14.842720	-0.873540	-9.821061	 71.367150	 3.992899	-2.385833	 28.452760	 0.000004	-18.928750	-4.667388	-175.812800	-1.412082	-15.341620	 0.887706	 9.883582	 71.835300	-4.209030	 2.384658	 28.388730	 0.000004	 34.102190	 2.740420	-0.059863	 1.643888	 3.642921	 0.656380	-4.943391	-4.535364	-1.082804	-91.776230	 78.527450	-180.000000	 42.877360	 30.487260	-54.000840	-24.140260	 2.957124	-9.598401	-49.442480	-4.963277	-6.378547	-2.635965	 4.993658	 6.788941	-5.165319	 0.784187	 3.516649	-5.225038	 0.466231	 0.424329	-0.000002	-3.783157	-0.089647	-4.798611	 4.828515	 0.202421	 89.782160	 78.203900	 179.999900	-1.628055	 11.744620	 114.226200	-18.366580	 2.644418	 9.713485	 23.038120	-9.044020	-3.250292	 6.112037	 4.509576	-0.364401	 4.968462	 1.518543	-9.347576	 5.168945	 0.703820	 2.021906
-0.000592	 0.010494	 1.266923	 0.003183	 0.003849	-0.140043	 18.843270	-4.050156	 176.048800	 1.442971	-14.167460	-0.832088	-9.612639	 71.048900	 3.772566	-2.385833	 28.452760	 0.000004	-18.956760	-4.226680	-175.758800	-1.423545	-14.608970	 0.843366	 9.744196	 71.549090	-4.062876	 2.384658	 28.388730	 0.000004	 36.308200	 2.740421	-0.059863	 1.643888	 3.642942	 0.656368	-4.943389	-4.535384	-1.082798	-91.776130	 78.527430	 180.000000	 42.936370	 30.528050	-54.109120	-20.137190	 1.754371	-7.386366	-48.868530	-3.169220	-5.667882	-2.635965	 4.993658	 6.788941	-5.165319	 0.784187	 3.516649	-5.225038	 0.466231	 0.424329	-0.000002	-3.783157	-0.089647	-4.798608	 4.828516	 0.202421	 89.782140	 78.203920	 180.000000	-1.755657	 11.929130	 114.245700	-22.533750	 1.433028	 7.479141	 22.791470	-7.327562	-3.980674	 6.112037	 4.509576	-0.364401	 4.968462	 1.518543	-9.347576	 5.168945	 0.703820	 2.021906
-0.000545	 0.008669	 1.267452	 0.003183	 0.003849	-0.140043	 18.859740	-3.799970	 176.025200	 1.449919	-13.694870	-0.803224	-9.480150	 70.832150	 3.632344	-2.385833	 28.452760	 0.000004	-18.978210	-3.878154	-175.710800	-1.431625	-14.066140	 0.810706	 9.676068	 71.357610	-3.991647	 2.384658	 28.388730	 0.000004	 36.825790	 2.740420	-0.059864	 1.643888	 3.642942	 0.656369	-4.943389	-4.535384	-1.082798	-91.776090	 78.527430	 179.999900	 43.054060	 30.621690	-54.334300	-15.608850	 0.805075	-4.797517	-48.140490	-1.475521	-5.018870	-2.635965	 4.993658	 6.788941	-5.165319	 0.784187	 3.516649	-5.225038	 0.466231	 0.424329	-0.000002	-3.783157	-0.089647	-4.798608	 4.828516	 0.202421	 89.782130	 78.203890	 180.000000	-1.796139	 12.295260	 114.238100	-27.241610	 0.476361	 4.863744	 22.214980	-5.556917	-4.701174	 6.112037	 4.509576	-0.364401	 4.968462	 1.518543	-9.347576	 5.168945	 0.703820	 2.021906
-0.000522	 0.006866	 1.268326	 0.003183	 0.003849	-0.140043	 18.889440	-3.394571	 175.990700	 1.461043	-12.898070	-0.754824	-9.224284	 70.363800	 3.364836	-2.385833	 28.452760	 0.000004	-19.014010	-3.373279	-175.651900	-1.443867	-13.197940	 0.758790	 9.476051	 70.914820	-3.784572	 2.384658	 28.388730	 0.000004	 35.313100	 2.740421	-0.059864	 1.643887	 3.642942	 0.656369	-4.943388	-4.535384	-1.082798	-91.776150	 78.527430	 180.000000	 43.225620	 30.778610	-54.675310	-10.570040	 0.254607	-1.855101	-47.229820	 0.035900	-4.472453	-2.635965	 4.993658	 6.788941	-5.165319	 0.784187	 3.516649	-5.225038	 0.466231	 0.424329	-0.000002	-3.783157	-0.089647	-4.798608	 4.828516	 0.202421	 89.782130	 78.203890	 180.000000	-3.965494	 12.512470	 113.919600	-32.272240	-0.079850	 1.890190	 20.597560	-3.660207	-5.376126	 6.112037	 4.509576	-0.364401	 4.968462	 1.518543	-9.347576	 5.168945	 0.703820	 2.021906
-0.000547	 0.005467	 1.269484	 0.003184	 0.003847	-0.140041	 18.931090	-2.835447	 175.945800	 1.475527	-11.774440	-0.687079	-8.872334	 69.711040	 2.994662	-2.385833	 28.452760	 0.000004	-19.062120	-2.734342	-175.587500	-1.459146	-12.017430	 0.688782	 9.159163	 70.283450	-3.453101	 2.384658	 28.388730	 0.000004	 32.447170	 2.740423	-0.059866	 1.643886	 3.642929	 0.656379	-4.943387	-4.535368	-1.082804	-91.776220	 78.527430	-180.000000	 43.395610	 30.936100	-55.015830	-6.247155	 0.123004	-1.582560	-46.352400	 1.032536	-4.141514	-2.635965	 4.993658	 6.788941	-5.165319	 0.784187	 3.516649	-5.225038	 0.466231	 0.424329	-0.000002	-3.783157	-0.089647	-4.798608	 4.828516	 0.202421	 89.782100	 78.203870	 180.000000	-8.013660	 12.873830	 113.380900	-36.019750	-0.207852	 1.595455	 19.071570	-2.464965	-5.723127	 6.112037	 4.509576	-0.364401	 4.968462	 1.518543	-9.347576	 5.168945	 0.703820	 2.021906
